<?xml version="1.0" encoding="utf-8"?>
<!-- Generator: Adobe Illustrator 16.0.0, SVG Export Plug-In . SVG Version: 6.00 Build 0)  -->
<!DOCTYPE svg PUBLIC "-//W3C//DTD SVG 1.1//EN" "http://www.w3.org/Graphics/SVG/1.1/DTD/svg11.dtd">
<svg version="1.1" id="图层_1" xmlns="http://www.w3.org/2000/svg" xmlns:xlink="http://www.w3.org/1999/xlink" x="0px" y="0px"
	 width="24px" height="35px" viewBox="0 0 24 35" enable-background="new 0 0 24 35" xml:space="preserve">
<g>
	<path fill="#D30909" d="M12,0.458c-6.516,0-11.794,5.168-11.794,11.546c0,6.377,7.879,14.829,11.794,22.538
		c4.083-7.707,11.793-16.161,11.793-22.538S18.514,0.458,12,0.458L12,0.458z M12,18.589c-3.664,0-6.635-2.922-6.635-6.528
		c0-3.604,2.971-6.526,6.635-6.526c3.663,0,6.634,2.923,6.634,6.526C18.635,15.667,15.663,18.589,12,18.589L12,18.589z M12,9.16
		c-1.628,0-2.949,1.298-2.949,2.9c0,1.604,1.321,2.9,2.949,2.9c1.628,0,2.947-1.299,2.947-2.9C14.947,10.458,13.629,9.16,12,9.16
		L12,9.16z"/>
</g>
</svg>
